<?xml version="1.0" encoding="utf-8"?>
<!-- Generator: Adobe Illustrator 26.0.1, SVG Export Plug-In . SVG Version: 6.00 Build 0)  -->
<svg version="1.1" id="Layer_1" xmlns="http://www.w3.org/2000/svg" xmlns:xlink="http://www.w3.org/1999/xlink" x="0px" y="0px"
	 viewBox="0 0 420.98 420.98" style="enable-background:new 0 0 420.98 420.98;" xml:space="preserve">
<style type="text/css">
	.st0{fill:#474F5B;}
	.st1{fill:#66B0B6;}
	.st2{fill:#FFFFFF;}
	.st3{fill:#E9533F;}
	.st4{opacity:0.13;fill:#090B09;}
</style>
<circle class="st0" cx="209.79" cy="210.49" r="205.87"/>
<path class="st1" d="M259.53,194.47v177.55c0,7.14-6.37,13.07-13.51,13.07h-68.04c-7.13,0-13.46-5.94-13.46-13.07V194.47
	c0-8.28,3.95-15.27,9.78-20.34c18.09-17.75,17.64-62.05,17.64-62.05h0.18c0.01,0,0.02-0.82,0.03-1.02c0.03-0.65,0.07-1.61,0.11-2.41
	c0.05-1.01,0.1-2.24,0.14-3.44c0.04-0.96,0.09-2.04,0.13-3.1c0-0.04-0.28-0.1-0.28-0.14c0.29-7.17,0.27-16.41,0.27-24.2V60
	c-1-0.28-2.94-1.72-2.94-3.46s1.94-3.18,2.94-3.46c0-6.67,0-11.99,0-11.99h38.12c0,0,0.03,5.06,0.05,11.74
	c1.64,0.29,2.89,1.81,2.89,3.53c0,1.71-1.24,3.24-2.86,3.54c0,2.05,0.01,4.22,0.02,6.36c0.01,3.91,0.01,7.87,0.01,11.51
	c0,7.78,0.31,17.01,0.62,24.18c0,0.04,0,0.08,0,0.12c0.15,3.46,0.29,6.44,0.4,8.55c0,0.04,0,0.54,0,0.58
	c0.01,0.15,0.01,0.9,0.02,0.9h0.21c0,0-0.39,44.11,17.59,61.93C255.49,179.09,259.53,186.13,259.53,194.47z"/>
<path class="st2" d="M231.38,101.09h-38.84c0,0-0.28,0.41-0.28,0.38c0.29-7.17,0.27-15.9,0.27-23.68v-9.7h38.21
	c0.01,2,0.01,6.96,0.01,10.59c0,7.78,0.31,16.06,0.62,23.23C231.37,101.95,231.38,101.09,231.38,101.09z"/>
<path class="st3" d="M231.78,112.09h-39.62c0.03-2,0.07-2.13,0.11-2.98c0.05-1.01,0.1-2.9,0.14-4.1c0.04-1,0.09-0.92,0.13-3.92
	h38.83c0,0,0,0.51,0,0.54c0.15,3.46,0.29,7.33,0.4,9.44C231.78,111.11,231.78,112.09,231.78,112.09z"/>
<path class="st3" d="M233.13,38.01c0-2.78-2.1-4.92-4.87-4.92h-32.69c-2.78,0-5.26,2.15-5.26,4.92c0,1.82,1.22,3.29,2.22,4.18v0.86
	c0,0.39,1.11,0.71,1.5,0.71c0.39,0,1.5-0.32,1.5-0.71v-0.27c0,0.09-0.37,0.3,0.04,0.3h0.96v-0.03c0,0.39,0.11,0.71,0.5,0.71
	c0.39,0,0.5-0.32,0.5-0.71v0.03h3v-0.03c0,0.39,0,0.71,0,0.71c1,0,0-0.32,0-0.71v0.03h2v-0.03c0,0.39,0.61,0.71,1,0.71
	c0.39,0,1-0.32,1-0.71v0.03h2v-0.03c0,0.39,0.11,0.71,0.5,0.71c0.39,0,0.5-0.32,0.5-0.71v0.03h1v-0.03c0,0.39,0.61,0.71,1,0.71
	c0.39,0,1-0.32,1-0.71v0.03h2v-0.03c0,0.39,1.11,0.71,1.5,0.71c0.39,0,1.5-0.32,1.5-0.71v0.03h1v-0.03c0,0.39,0.11,0.71,0.5,0.71
	c0.39,0,0.5-0.32,0.5-0.71v0.03h2v-0.03c0,0.39,0.11,0.71,0.5,0.71c0.39,0,0.5-0.32,0.5-0.71v0.03h3v-0.03c0,0.39-1,0.71,0,0.71
	c0,0,0-0.32,0-0.71v0.03h3v-0.03c0,0.39,0.11,0.71,0.5,0.71c0.39,0,0.5-0.32,0.5-0.71v0.03h0.73c0.41,0,0.27-0.21,0.27-0.3v0.27
	c0,0.39,0.61,0.71,1,0.71c0.39,0,1-0.32,1-0.71v-0.86C231.53,41.3,233.13,39.83,233.13,38.01z"/>
<path class="st2" d="M250.39,286.91h-76.94v-57.19c0-12.99,10.63-23.62,23.62-23.62h29.69c12.99,0,23.62,10.63,23.62,23.62V286.91z"
	/>
<path class="st3" d="M227.9,350.54h-31.96c-12.37,0-22.49-10.12-22.49-22.49V275.5h76.94v52.55
	C250.39,340.42,240.27,350.54,227.9,350.54z"/>
<rect x="169.28" y="263.29" class="st0" width="85.27" height="32.18"/>
<g>
	<path class="st2" d="M185.46,270.92c1.05-0.22,2.71-0.39,4.4-0.39c2.41,0,3.96,0.42,5.12,1.36c0.97,0.72,1.55,1.83,1.55,3.29
		c0,1.8-1.19,3.38-3.15,4.1v0.06c1.77,0.44,3.85,1.91,3.85,4.68c0,1.61-0.64,2.82-1.58,3.74c-1.3,1.19-3.4,1.74-6.45,1.74
		c-1.66,0-2.93-0.11-3.74-0.22V270.92z M187.87,278.56h2.19c2.55,0,4.04-1.33,4.04-3.13c0-2.19-1.66-3.04-4.1-3.04
		c-1.11,0-1.74,0.08-2.13,0.17V278.56z M187.87,287.49c0.47,0.08,1.16,0.11,2.02,0.11c2.49,0,4.79-0.91,4.79-3.63
		c0-2.55-2.19-3.6-4.81-3.6h-1.99V287.49z"/>
	<path class="st2" d="M210.12,280.58h-7.25v6.72h8.08v2.02h-10.49v-18.65h10.07v2.02h-7.67v5.89h7.25V280.58z"/>
	<path class="st2" d="M223.73,280.58h-7.25v6.72h8.08v2.02h-10.49v-18.65h10.07v2.02h-7.67v5.89h7.25V280.58z"/>
	<path class="st2" d="M227.69,270.92c1.22-0.25,2.96-0.39,4.62-0.39c2.57,0,4.23,0.47,5.4,1.52c0.94,0.83,1.47,2.1,1.47,3.54
		c0,2.46-1.55,4.1-3.51,4.76v0.08c1.44,0.5,2.3,1.83,2.74,3.76c0.61,2.6,1.05,4.4,1.44,5.12h-2.49c-0.3-0.53-0.72-2.13-1.25-4.46
		c-0.55-2.57-1.55-3.54-3.74-3.63h-2.27v8.08h-2.41V270.92z M230.1,279.41h2.46c2.57,0,4.21-1.41,4.21-3.54
		c0-2.41-1.74-3.46-4.29-3.49c-1.16,0-1.99,0.11-2.38,0.22V279.41z"/>
</g>
<ellipse transform="matrix(0.1608 -0.987 0.987 0.1608 -54.0151 406.3036)" class="st3" cx="211.92" cy="234.92" rx="12.07" ry="12.07"/>
<path class="st4" d="M195.57,33.09c-2.77,0-5.25,2.15-5.25,4.92c0,1.82,1.21,3.29,2.21,4.18v0.86c0,1.78,0,5.4,0,10.03
	c-1,0.28-2.94,1.72-2.94,3.46s1.94,3.18,2.94,3.46v17.79c0,7.78,0.01,16.99-0.27,24.17c0,0.04,0.14,0.07,0.14,0.11
	c-0.04,1.06-0.01,2.08-0.06,3.04c-0.05,1.2-0.06,2.31-0.11,3.33c-0.04,0.8-0.06,1.99-0.09,2.64c-0.01,0.19,0,1.02-0.01,1.02h-0.18
	c0,0,0.45,44.3-17.64,62.05c-5.83,5.06-9.78,12.06-9.78,20.34v177.55c0,7.14,6.32,13.07,13.46,13.07h33.54V43.16v-1.32v-8.75H195.57
	z"/>
</svg>
