<?xml version="1.0" encoding="utf-8"?>
<!-- Generator: Adobe Illustrator 26.0.1, SVG Export Plug-In . SVG Version: 6.00 Build 0)  -->
<svg version="1.1" id="Layer_1" xmlns="http://www.w3.org/2000/svg" xmlns:xlink="http://www.w3.org/1999/xlink" x="0px" y="0px"
	 viewBox="0 0 419.07 424.79" style="enable-background:new 0 0 419.07 424.79;" xml:space="preserve">
<style type="text/css">
	.st0{fill:#474F5B;}
	.st1{fill:#FFFFFF;}
	.st2{fill:#66B0B6;}
	.st3{fill:#56A1A3;}
</style>
<ellipse transform="matrix(0.7071 -0.7071 0.7071 0.7071 -87.6766 209.9802)" class="st0" cx="209.63" cy="210.83" rx="205.87" ry="205.87"/>
<path class="st1" d="M244.28,119.97h-61.41v-5.18h12.97c5.54,0,10.07-4.55,10.07-10.09l0.12-0.01c0-4.32-3.04-8.03-6.49-9.45v-8.06
	h38.21c7.9,0,14.14-6.57,14.14-14.47v0.04c0-7.9-6.24-14.33-14.14-14.33h-77.43c-7.9,0-14.27,6.37-14.27,14.27v0.06
	c0,7.9,6.37,14.43,14.27,14.43h13.34v7.48h-29.62c-5.54,0-10.07,4.51-10.07,10.05v0.01c0,5.54,4.53,10.08,10.07,10.08h12.94v5.18
	h-14.36c-5.54,0-10.07,4.53-10.07,10.07c0,5.54,4.53,10.07,10.07,10.07h46.57v5.1c0,2.35,1.91,4.11,4.26,4.11h16.96
	c2.35,0,4.09-1.76,4.09-4.11v-5.1h29.78c5.54,0,10.07-4.53,10.07-10.07C254.35,124.5,249.82,119.97,244.28,119.97z"/>
<path class="st2" d="M354.54,211.72v60.48c0,16.48-13.18,30.18-29.65,30.18H281.9v-19.72h35.68c7.15,0,13.09-5.86,13.09-13.01
	v-55.38c0-7.15-5.94-13.07-13.09-13.07H281.9V182h42.99C341.36,182,354.54,195.24,354.54,211.72z"/>
<path class="st3" d="M354.54,211.72v60.48c0,16.48-13.18,29.66-29.65,29.66H281.9v-8.82h32.48c15.76,0,28.75-11.24,28.75-25.21
	v-51.28c0-13.97-12.98-25.2-28.75-25.2H281.9V182h42.99C341.36,182,354.54,195.24,354.54,211.72z"/>
<path class="st2" d="M267.5,349.56H135.27c-14.05,0-25.43-11.39-25.43-25.43V144.07h183.09v180.05
	C292.93,338.17,281.55,349.56,267.5,349.56z"/>
<rect x="157.76" y="144.07" class="st1" width="4.32" height="76.57"/>
<rect x="134.32" y="219.68" class="st0" width="51.12" height="47.04"/>
<path class="st3" d="M292.8,144.13v180.52c0,14.05-11.25,25.99-25.3,25.99H135.27c-8.3,0-15.67-4.25-20.31-10.4
	c28.62,2.24,57.32,1.49,85.34-4.44c15.41-3.26,31.7-9.07,40.29-22.27c7.49-11.51,7.5-26.2,7.25-39.93
	c-0.28-15.96-0.57-32.17-0.85-48.13c-0.48-27.03-0.96-53.84-1.45-81.34H292.8z"/>
</svg>
