<?xml version="1.0" encoding="utf-8"?>
<!-- Generator: Adobe Illustrator 26.0.1, SVG Export Plug-In . SVG Version: 6.00 Build 0)  -->
<svg version="1.1" id="Layer_1" xmlns="http://www.w3.org/2000/svg" xmlns:xlink="http://www.w3.org/1999/xlink" x="0px" y="0px"
	 viewBox="0 0 419.58 423.78" style="enable-background:new 0 0 419.58 423.78;" xml:space="preserve">
<style type="text/css">
	.st0{fill:#FCC015;}
	.st1{fill:#4A5059;}
	.st2{fill:#474F5B;}
	.st3{fill:#FFFFFF;}
</style>
<ellipse transform="matrix(0.7071 -0.7071 0.7071 0.7071 -87.6821 210.6943)" class="st0" cx="210.49" cy="211.19" rx="205.87" ry="205.87"/>
<path class="st1" d="M203.06,181.21h-7v-32.47c0-8.45,6.87-15.32,15.32-15.32h86.57c3.73,0,6.77-3.04,6.77-6.77V114.4
	c0-3.73-3.04-6.77-6.77-6.77H284.2v-7h13.75c7.59,0,13.77,6.18,13.77,13.77v12.25c0,7.25-5.63,13.21-12.75,13.73
	c-0.17,0.02-0.34,0.04-0.51,0.04h-87.07c-4.59,0-8.32,3.73-8.32,8.32V181.21z"/>
<rect x="62.12" y="164.7" class="st2" width="296.75" height="138"/>
<g>
	<rect x="82.53" y="191.1" class="st3" width="21.74" height="19.58"/>
	<rect x="111.78" y="191.1" class="st3" width="21.74" height="19.58"/>
	<rect x="141.04" y="191.1" class="st3" width="21.74" height="19.58"/>
	<rect x="170.3" y="191.1" class="st3" width="21.74" height="19.58"/>
	<rect x="199.56" y="191.1" class="st3" width="21.74" height="19.58"/>
	<rect x="228.82" y="191.1" class="st3" width="21.74" height="19.58"/>
	<rect x="258.08" y="191.1" class="st3" width="21.74" height="19.58"/>
	<rect x="287.34" y="191.1" class="st3" width="21.74" height="19.58"/>
	<rect x="316.6" y="191.1" class="st3" width="21.74" height="19.58"/>
	<rect x="82.53" y="222.46" class="st3" width="21.74" height="19.58"/>
	<rect x="111.78" y="222.46" class="st3" width="21.74" height="19.58"/>
	<rect x="141.04" y="222.46" class="st3" width="21.74" height="19.58"/>
	<rect x="170.3" y="222.46" class="st3" width="21.74" height="19.58"/>
	<rect x="199.56" y="222.46" class="st3" width="21.74" height="19.58"/>
	<rect x="228.82" y="222.46" class="st3" width="21.74" height="19.58"/>
	<rect x="258.08" y="222.46" class="st3" width="21.74" height="19.58"/>
	<rect x="287.34" y="222.46" class="st3" width="21.74" height="19.58"/>
	<rect x="316.6" y="222.46" class="st3" width="21.74" height="19.58"/>
	<rect x="82.53" y="253.82" class="st3" width="21.74" height="19.58"/>
	<rect x="111.78" y="253.82" class="st3" width="21.74" height="19.58"/>
	<rect x="141.04" y="253.82" class="st3" width="21.74" height="19.58"/>
	<rect x="170.3" y="253.82" class="st3" width="138.77" height="19.58"/>
	<rect x="316.6" y="253.82" class="st3" width="21.74" height="19.58"/>
</g>
</svg>
