<?xml version="1.0" encoding="utf-8"?>
<!-- Generator: Adobe Illustrator 26.0.1, SVG Export Plug-In . SVG Version: 6.00 Build 0)  -->
<svg version="1.1" id="Layer_1" xmlns="http://www.w3.org/2000/svg" xmlns:xlink="http://www.w3.org/1999/xlink" x="0px" y="0px"
	 viewBox="0 0 417.48 419.58" style="enable-background:new 0 0 417.48 419.58;" xml:space="preserve">
<style type="text/css">
	.st0{fill:#474F5B;}
	.st1{fill:#66B0B6;}
	.st2{fill:#E9533F;}
	.st3{fill:#FCC015;}
	.st4{opacity:0.1;fill:#030303;}
	.st5{fill:#FFFFFF;}
	.st6{fill:#2F3B46;}
	.st7{opacity:0.14;}
	.st8{fill:#010101;}
	.st9{fill:#3E4E5D;}
	.st10{fill:#CCE7EF;}
</style>
<ellipse transform="matrix(0.7071 -0.7071 0.7071 0.7071 -86.6083 209.0909)" class="st0" cx="209.09" cy="209.09" rx="205.87" ry="205.87"/>
<g>
	<path class="st1" d="M375.01,330.2c-37.14,51.35-97.56,84.76-165.78,84.76c-64.22,0-121.52-29.6-159.01-75.92
		c5.32-5.63,12.58-9.4,20.72-10.23c1.11-0.12,2.23-0.17,3.36-0.17c1.15,0,2.29,0.06,3.41,0.17c7.85,0.79,14.95,4.32,20.21,9.62
		c0.25,0.24,0.28,0.48,0.78,0.74v0.01c0-0.18,0.3-0.35,0.49-0.52c2.84-2.52,6.57-4.04,10.67-4.04c5.6,0,10.52,2.85,13.41,7.18
		c3.01-1.59,6.44-2.49,10.08-2.49c6.04,0,11.49,2.47,15.42,6.45c0.42,0.42,0.81,0.85,1.19,1.31c0.95,1.13,1.78,2.35,2.49,3.66
		c0.84,1.57,1.5,3.26,1.94,5.02c9,0.7,16.14,8.04,16.49,17.14c1.1-0.31,2.26-0.48,3.46-0.48c1.41,0,2.76,0.24,4.02,0.66
		c2.3-8.38,4.28-16.84,5.97-25.36c5.07-25.46,7.7-51.33,9.38-77.22c0.86-13.05,1.44-26.11,2.01-39.17c0.05-1.04,0.04-2.04,0.03-2.97
		c0-0.64-0.01-1.26,0.01-1.84c0.01-0.28,0.02-0.55,0.03-0.82c0.05-0.93,0.18-1.78,0.45-2.54c0.08-0.22,0.17-0.43,0.27-0.63
		c0.16-0.31,0.34-0.59,0.57-0.86c0.13-0.15,0.25-0.28,0.4-0.42c0.07-0.07,0.14-0.19,0.22-0.19h0.01c0.16,0,0.32-0.27,0.5-0.39
		c0.17-0.12,0.35-0.23,0.55-0.33c0.32-0.18,0.68-0.34,1.08-0.48c0.13-0.05,0.22-0.09,0.37-0.14c0.06-0.02,0.05-0.04,0.11-0.06
		c0.17-0.05,0.29-0.1,0.45-0.15c0.05-0.02,0.1-0.03,0.16-0.05c2.99-0.73,6.32-1.17,8.84-1.32v-0.03c0,0,0.16,0.01,0.25,0.01
		c0.09,0,0.25-0.01,0.25-0.01v0.03c3.52,0.15,6.5,0.58,9.48,1.32c0.14,0.04,0.3,0.07,0.46,0.11c0.49,0.11,1.04,0.23,1.38,0.36
		c0.19,0.07,0.36,0.14,0.53,0.22c1.9,0.88,2.73,2.16,3.1,3.77c0.09,0.4,0.16,0.81,0.2,1.26c0,0.13,0.01,0.26,0.03,0.4
		c0.01,0.17,0.02,0.35,0.03,0.53c0.04,0.91,0.03,1.91,0.03,2.97c0,0.19,0,0.37,0.01,0.56c0,0.36,0,0.72,0.01,1.09
		c0,0.19,0.01,0.39,0.02,0.58c0.57,13.06,1.18,26.12,2.03,39.17c0.21,3.24,0.44,6.47,0.68,9.7c0.12,1.62,0.25,3.24,0.38,4.85
		c0.3,3.64,0.62,7.27,0.96,10.91c0.47,4.84,0.98,9.68,1.55,14.51c0.14,1.21,0.29,2.42,0.44,3.62c0.2,1.61,0.41,3.22,0.62,4.83
		c1.3,9.64,2.86,19.25,4.76,28.79c1.48,7.42,3.17,14.78,5.1,22.09c0.27,1.04,0.55,2.08,0.84,3.12c0.79,0.4,1.55,0.86,2.28,1.37
		c1.81-1.99,4.12-3.52,6.73-4.4c0.37-6.47,4.61-11.92,10.44-14.04c-0.08-0.63-0.12-1.26-0.12-1.9c0-8.79,7.13-15.92,15.92-15.92
		c6.12,0,11.42,3.46,14.09,8.53c2.91-3.18,7.1-5.19,11.76-5.19c4.07,0,7.78,1.53,10.6,4.05c2.66-5.08,7.97-8.55,14.1-8.55
		c1.21,0,2.38,0.16,3.5,0.4c6.08-7.32,15.25-11.98,25.52-11.98c3.72,0,7.29,0.61,10.63,1.74
		C370.67,327.84,372.92,328.91,375.01,330.2z"/>
	<path class="st1" d="M357.65,318.76c-10.6,0-20.61,4.19-28.03,11.6c-0.33-0.01-0.64-0.02-0.96-0.02c-5.98,0-11.56,2.35-15.69,6.39
		c-2.81-1.24-5.88-1.89-9-1.89c-3.72,0-7.35,0.93-10.58,2.66c-4.08-3.8-9.5-5.99-15.27-5.99c-11.67,0-21.28,8.94-22.35,20.33
		c-4.02,2.54-7.11,6.28-8.86,10.67c-1.29-5.25-2.49-10.64-3.58-16.08c-1.77-8.92-3.35-18.47-4.69-28.38
		c-0.22-1.65-0.43-3.22-0.62-4.77c-1.13-9.07-2.08-18.48-2.92-28.76c-0.13-1.56-0.26-3.18-0.37-4.79c-0.26-3.45-0.48-6.61-0.68-9.65
		c-0.89-13.58-1.51-27.27-2.02-39.03c-0.04-0.85-0.04-1.72-0.03-2.56c0-1.11,0-2.25-0.08-3.39l-0.01-0.13
		c0-0.04-0.01-0.08-0.01-0.12l-0.01-0.12l0-0.11c-0.07-0.76-0.18-1.47-0.34-2.16c-0.86-3.74-3.19-6.59-6.72-8.22
		c-0.31-0.14-0.6-0.27-0.92-0.39c-0.78-0.31-1.58-0.5-2.24-0.66l-0.39-0.07c-1.5-0.37-3.01-0.66-4.52-0.89v-1.21l-6.78,0.56
		l-6.78-0.56v1.3c-1,0.23-2.64,0.5-3.87,0.8c-0.37,0.09-0.62,0.19-0.85,0.26l-0.05,0.03c-0.19,0.06-0.37,0.13-0.55,0.2
		c-0.07,0.03-0.14,0.05-0.2,0.08l-0.04,0.01c-1.09,0.38-2.1,0.88-3.02,1.49c-0.48,0.31-0.87,0.62-1.12,0.83
		c-0.14,0.12-0.35,0.3-0.59,0.53c-0.34,0.32-0.6,0.62-0.79,0.84l-0.04,0.05l-0.04,0.05c-2.87,3.46-2.84,7.58-2.82,10.89
		c0,0.87,0.01,1.78-0.03,2.67c-0.58,13.27-1.17,26.25-2,39.02c-1.97,30.26-4.92,54.53-9.27,76.37c-1.04,5.25-2.2,10.45-3.44,15.53
		c-3.15-5.81-8.59-10.21-15.15-11.97c-4.35-10.32-14.48-17.21-25.99-17.21c-2.79,0-5.57,0.42-8.23,1.23
		c-4.12-3.77-9.55-5.92-15.28-5.92c-3.8,0-7.48,0.93-10.74,2.69c-7.01-5.62-15.65-8.67-24.76-8.67c-11,0-20.96,4.5-28.16,11.75
		c1.31,1.74,2.66,3.46,4.03,5.15c5.33-5.62,12.6-9.38,20.74-10.2c1.11-0.12,2.23-0.17,3.36-0.17c1.15,0,2.29,0.06,3.41,0.17
		c7.84,0.8,14.88,4.29,20.13,9.58c0.25,0.24,0.5,0.71,0.73,0.71h0.13v0.07c0-0.18,0.3-0.35,0.49-0.51
		c2.84-2.52,6.57-4.04,10.67-4.04c5.6,0,10.52,2.85,13.41,7.18c3.01-1.59,6.44-2.49,10.08-2.49c6.04,0,11.49,2.47,15.42,6.45
		c0.41,0.42,0.81,0.85,1.19,1.31c0.94,1.13,1.78,2.35,2.49,3.66c0.84,1.57,1.5,3.26,1.94,5.02c9,0.7,16.14,8.04,16.49,17.14
		c1.1-0.31,2.26-0.48,3.46-0.48c1.41,0,2.76,0.24,4.02,0.66c2.3-8.38,4.28-16.84,5.97-25.36c5.07-25.46,7.7-51.33,9.38-77.22
		c0.86-13.05,1.44-26.11,2.01-39.17c0.05-1.04,0.04-2.04,0.03-2.97c0-0.64,0-1.26,0.01-1.84c0.01-0.28,0.02-0.55,0.03-0.82
		c0.06-0.93,0.18-1.78,0.45-2.54c0.08-0.22,0.17-0.43,0.27-0.63c0.16-0.31,0.34-0.59,0.57-0.86c0.13-0.15,0.25-0.28,0.4-0.42
		c0.07-0.07,0.14-0.19,0.22-0.19h0.01c0.16,0,0.32-0.27,0.5-0.39c0.17-0.12,0.35-0.23,0.55-0.33c0.33-0.18,0.69-0.34,1.1-0.48
		c0.13-0.05,0.24-0.09,0.38-0.14c0.06-0.02,0.08-0.04,0.15-0.06c0.16-0.05,0.25-0.1,0.38-0.15c0.05-0.02,0.1-0.03,0.16-0.05
		c2.99-0.73,6.32-1.17,8.84-1.32v-0.03c0,0,0.16,0.01,0.25,0.01c0.09,0,0.25-0.01,0.25-0.01v0.03c3.52,0.15,6.5,0.58,9.48,1.32
		c0.14,0.04,0.3,0.07,0.46,0.11c0.47,0.11,0.98,0.23,1.32,0.36c0.19,0.07,0.39,0.14,0.56,0.22c1.9,0.88,2.75,2.16,3.12,3.77
		c0.09,0.4,0.16,0.81,0.2,1.26c0.01,0.13,0.02,0.26,0.04,0.4c0.02,0.18,0.03,0.35,0.04,0.53c0.04,0.91,0.03,1.91,0.03,2.97
		c0,0.19,0,0.37,0.01,0.56c0,0.36,0,0.72,0.01,1.09c0,0.19,0.01,0.39,0.02,0.58c0.57,13.06,1.18,26.12,2.03,39.17
		c0.21,3.24,0.44,6.47,0.68,9.7c0.12,1.62,0.25,3.24,0.38,4.85c0.3,3.64,0.62,7.27,0.96,10.91c0.46,4.84,0.98,9.68,1.55,14.51
		c0.14,1.21,0.29,2.42,0.44,3.62c0.2,1.61,0.41,3.22,0.62,4.83c1.3,9.64,2.86,19.25,4.76,28.79c1.48,7.42,3.17,14.78,5.1,22.09
		c0.27,1.04,0.55,2.08,0.84,3.12c0.79,0.4,1.55,0.86,2.28,1.37c1.81-1.99,4.12-3.52,6.73-4.4c0.37-6.47,4.61-11.92,10.44-14.04
		c-0.08-0.63-0.12-1.26-0.12-1.9c0-8.79,7.13-15.92,15.92-15.92c6.12,0,11.42,3.46,14.09,8.53c2.91-3.18,7.1-5.19,11.76-5.19
		c4.07,0,7.78,1.53,10.6,4.05c2.66-5.08,7.97-8.55,14.1-8.55c1.21,0,2.38,0.16,3.5,0.4c6.08-7.32,15.25-11.98,25.52-11.98
		c3.72,0,7.29,0.61,10.63,1.74c2.37,0.8,4.62,1.86,6.71,3.15c1.27-1.76,2.52-3.53,3.73-5.33C372.64,321,365.4,318.76,357.65,318.76z
		"/>
</g>
<path class="st2" d="M210.4,219.57c0,0-63.47,14.85,0,131.88C274.2,234.41,210.4,219.57,210.4,219.57z"/>
<path class="st3" d="M210.43,217.79c0,0-37.4,8.69,0,77.18C248.02,226.48,210.43,217.79,210.43,217.79z"/>
<path class="st4" d="M210.61,351.32V219.59C213.24,220.18,273.13,236.68,210.61,351.32z"/>
<polygon class="st2" points="160.88,157.19 126.14,183.07 147.85,278.4 165.22,204.52 "/>
<polygon class="st2" points="260.1,157.19 294.84,183.07 273.13,278.4 255.76,204.52 "/>
<path class="st5" d="M210.8,15.41c0,0-73.69,81.84-42.99,211.9c0,0,10.09,3.98,42.99,4.42c32.9-0.44,42.99-4.42,42.99-4.42
	C284.5,97.25,210.8,15.41,210.8,15.41z"/>
<path class="st2" d="M245.72,77.56c-10.93,3.68-22.68,5.68-34.92,5.68c-12.24,0-23.99-2-34.92-5.68
	c14.83-39.84,34.92-62.15,34.92-62.15S230.89,37.72,245.72,77.56z"/>
<path class="st6" d="M185.47,230.53v7.17c0,0,20.69,4.06,50.44,0v-7.17H185.47z"/>
<g class="st7">
	<path class="st8" d="M253.79,227.31c0,0-4.86,1.92-18.84,3.24c32.99-97.58,1.45-173.17-14.29-202.08
		C239.62,56.43,277.29,127.74,253.79,227.31z"/>
</g>
<g class="st7">
	<path class="st5" d="M167.76,227.31c0,0,4.86,1.92,18.84,3.24c-32.99-97.58-1.45-173.17,14.29-202.08
		C181.93,56.43,144.25,127.74,167.76,227.31z"/>
</g>
<path class="st9" d="M237.78,126.52c0,14.88-12.1,26.98-26.99,26.98c-0.8,0-1.6-0.04-2.38-0.11c-4.51-0.39-8.7-1.9-12.3-4.25
	c-0.56-0.36-1.1-0.74-1.63-1.15c-4.63-3.52-8.08-8.5-9.68-14.24c-0.64-2.3-0.99-4.73-0.99-7.24c0-14.88,12.1-26.98,26.98-26.98
	c1.08,0,2.16,0.07,3.21,0.19c6.01,0.71,11.41,3.41,15.55,7.41c0.48,0.46,0.94,0.94,1.38,1.43c2.89,3.23,5.01,7.17,6.07,11.51
	C237.51,122.15,237.78,124.31,237.78,126.52z"/>
<path class="st1" d="M232.87,126.52c0,11.83-9.37,21.53-21.08,22.05c-0.33,0.01-0.66,0.02-1,0.02c-4.24,0-8.2-1.2-11.57-3.28
	c-0.55-0.34-1.08-0.7-1.59-1.08c-4.59-3.42-7.81-8.57-8.68-14.47c-0.16-1.06-0.24-2.14-0.24-3.24c0-12.14,9.84-22.01,21.96-22.07
	c0.04,0,0.08,0,0.11,0c6.04,0,11.52,2.44,15.51,6.39c0.46,0.45,0.89,0.92,1.3,1.41c2.8,3.29,4.65,7.4,5.14,11.92
	C232.83,124.94,232.87,125.73,232.87,126.52z"/>
<g>
	<path class="st5" d="M211.98,101.6c0,0.65-0.53,1.18-1.18,1.18s-1.18-0.53-1.18-1.18s0.53-1.18,1.18-1.18
		S211.98,100.95,211.98,101.6z"/>
	<path class="st5" d="M229.12,109.63c-0.46,0.46-1.2,0.46-1.66,0c-0.46-0.46-0.46-1.2,0-1.66c0.46-0.46,1.2-0.46,1.66,0
		C229.58,108.43,229.58,109.17,229.12,109.63z"/>
	<path class="st5" d="M235.57,127.44c-0.65,0-1.18-0.53-1.18-1.17c0-0.65,0.53-1.18,1.18-1.18c0.65,0,1.18,0.53,1.18,1.18
		C236.74,126.92,236.22,127.44,235.57,127.44z"/>
	<circle class="st5" cx="228.36" cy="143.76" r="1.17"/>
	<path class="st5" d="M209.72,151.03c0-0.65,0.53-1.18,1.17-1.18c0.65,0,1.18,0.53,1.18,1.18c0,0.65-0.53,1.18-1.18,1.18
		C210.25,152.21,209.72,151.68,209.72,151.03z"/>
	<path class="st5" d="M192.58,143c0.46-0.46,1.2-0.46,1.66,0c0.46,0.46,0.46,1.2,0,1.66c-0.46,0.46-1.2,0.46-1.66,0
		C192.12,144.2,192.12,143.46,192.58,143z"/>
	<path class="st5" d="M186.13,125.19c0.65,0,1.18,0.53,1.18,1.18c0,0.65-0.53,1.18-1.18,1.18c-0.65,0-1.17-0.53-1.17-1.18
		C184.96,125.72,185.48,125.19,186.13,125.19z"/>
	<path class="st5" d="M194.17,108.04c0.46,0.46,0.46,1.2,0,1.66c-0.46,0.46-1.2,0.46-1.66,0c-0.46-0.46-0.46-1.2,0-1.66
		C192.96,107.58,193.71,107.58,194.17,108.04z"/>
</g>
<path class="st10" d="M226.31,110.83l-28.67,33.4c-4.59-3.42-7.81-8.57-8.68-14.47l21.72-25.31c0.04,0,0.08,0,0.11,0
	C216.84,104.45,222.32,106.89,226.31,110.83z"/>
<path class="st10" d="M232.75,124.16l-20.95,24.41c-0.33,0.01-0.66,0.02-1,0.02c-4.24,0-8.2-1.2-11.57-3.28l28.38-33.07
	C230.41,115.53,232.26,119.64,232.75,124.16z"/>
</svg>
